<?xml version="1.0" encoding="UTF-8"?>
<svg id="Camada_2" data-name="Camada 2" xmlns="http://www.w3.org/2000/svg" xmlns:xlink="http://www.w3.org/1999/xlink" viewBox="0 0 410 262">
  <defs>
    <style>
      .cls-1 {
        fill: #fff;
      }

      .cls-1, .cls-2 {
        stroke: #fff;
        stroke-miterlimit: 10;
      }

      .cls-3, .cls-2 {
        fill: none;
      }

      .cls-2 {
        stroke-width: 3px;
      }

      .cls-4 {
        clip-path: url(#clippath);
      }
    </style>
    <clipPath id="clippath">
      <rect class="cls-3" width="410" height="262"/>
    </clipPath>
  </defs>
  <g id="Camada_2-2" data-name="Camada 2">
    <g class="cls-4">
      <g>
        <path class="cls-2" d="M164.37,68.34l-14.2.46,2.29,42.55,23.82,10.06,3.66,13.27s13.29-2.29,23.36-5.95c0,0,3.66-9.61.46-15.1-3.21-5.49-23.36-8.69-23.36-8.69-13.29-21.51,3.66-46.22-10.54-48.97-14.2-2.75-31.13,1.37-31.13,1.37,0,0-1.85,52.63,4.11,62.23,5.95,9.61,27.49,16.02,27.49,16.02l2.29,25.17-57.72-34.77V43.17L187.35,1.53l73.23,42.1v82.83l-40.31,23.34-.46-43.01s-22.91,1.83-23.82-4.58c0,0,9.62-5.03,16.04-4.12v-12.81h16.49v10.99s11.91-.46,14.66,3.21"/>
        <path class="cls-2" d="M187.25,2.76v17.6"/>
        <path class="cls-2" d="M187.25,39.03c2.88,0,5.21-2.33,5.21-5.2s-2.33-5.2-5.21-5.2-5.21,2.33-5.21,5.2,2.33,5.2,5.21,5.2Z"/>
        <path class="cls-2" d="M187.25,41.76c7.41,0,13.42-2.94,13.42-6.57s-6.01-6.57-13.42-6.57-13.42,2.94-13.42,6.57,6.01,6.57,13.42,6.57Z"/>
        <path class="cls-2" d="M173.83,35.19s-1.46-14.82,13.42-14.82c12.69,0,14.12,12.74,13.42,14.82"/>
        <path class="cls-1" d="M145.11,260.06v-69.67h26.97c4.81,0,9,1.81,12.59,5.42,3.59,3.61,5.38,7.81,5.38,12.62s-1.79,9.13-5.38,12.97c-3.59,3.85-7.79,5.77-12.59,5.77l20.77,32.9h-3.11l-20.77-32.9h-21.54v32.9h-2.32ZM147.43,192.71v31.36h24.65c4.19,0,7.84-1.56,10.96-4.69,3.12-3.13,4.69-6.78,4.69-10.95s-1.56-7.84-4.69-11c-3.12-3.14-6.79-4.72-10.96-4.72h-24.65Z"/>
        <path class="cls-1" d="M192.85,260.06l24.88-69.67h2.32l24.88,69.67h-2.32l-7.44-21.06-32.55.15-7.44,20.9h-2.32ZM218.88,193.64l-15.42,43.2h30.85l-15.42-43.2Z"/>
        <path class="cls-1" d="M264.62,192.71v-2.32h49.6v2.32l-46.19,65.03h46.19v2.32h-49.6v-2.32l46.19-65.03h-46.19Z"/>
        <path class="cls-1" d="M321.97,260.06v-69.67h43.4v2.32h-41.07v31.36h27.12v2.32h-27.12v31.35h41.07v2.32h-43.4Z"/>
        <path class="cls-1" d="M366.16,240.86h2.32c0,3.61,1.47,7.33,4.42,11.15,2.95,3.82,7.67,5.73,14.18,5.73s11.49-1.16,14.95-3.48c3.46-2.32,5.19-6.17,5.19-11.54s-3.42-9.88-10.27-13.55c-6.85-3.67-13.69-6.96-20.53-9.91-6.85-2.94-10.27-7.15-10.27-12.62s1.91-9.55,5.74-12.24c3.82-2.68,9.2-4.02,16.11-4.02s12.25,1.35,15.96,4.02c3.72,2.68,5.58,6.19,5.58,10.52h-2.32c0-3.92-1.84-6.94-5.5-9.05-3.67-2.12-8.35-3.17-14.02-3.17s-10.31,1.11-13.87,3.33c-3.57,2.22-5.35,5.6-5.35,10.14s3.42,8.36,10.27,11.46c6.85,3.09,13.69,6.5,20.53,10.22,6.85,3.71,10.27,8.57,10.27,14.56s-1.92,10.43-5.74,13.32c-3.82,2.89-9.45,4.33-16.9,4.33s-12.76-2.17-15.96-6.5c-3.2-4.33-4.81-8.57-4.81-12.7h0Z"/>
        <path class="cls-1" d="M.44,261.56v-69.67h43.4v2.32H2.77v31.35h27.12v2.32H2.77v31.35h41.07v2.32H.44Z"/>
        <path class="cls-1" d="M62.19,258.08c5.58,0,10.47-3.25,14.64-9.76l1.63,1.63c-4.65,6.96-10.08,10.46-16.28,10.46s-11.63-3.48-16.28-10.46c-4.65-6.96-6.97-15.1-6.97-24.38s2.32-17.42,6.97-24.38c4.65-6.96,10.08-10.45,16.28-10.45s11.63,3.48,16.28,10.45l-1.63,1.62c-4.19-6.5-9.06-9.76-14.64-9.76s-10.47,3.25-14.64,9.76c-4.19,6.5-6.28,14.09-6.28,22.76s2.09,16.26,6.28,22.76c4.19,6.5,9.06,9.76,14.64,9.76h0Z"/>
        <path class="cls-1" d="M101.71,260.4c-6.2,0-11.63-3.48-16.28-10.45-4.65-6.96-6.97-15.1-6.97-24.38s2.32-17.42,6.97-24.38c4.65-6.96,10.08-10.45,16.28-10.45s11.63,3.48,16.28,10.45c4.65,6.96,6.97,15.1,6.97,24.38s-2.32,17.42-6.97,24.38c-4.65,6.96-10.08,10.45-16.28,10.45ZM101.71,258.08c5.58,0,10.47-3.25,14.64-9.76,4.19-6.5,6.28-14.09,6.28-22.76s-2.09-16.26-6.28-22.76c-4.19-6.5-9.07-9.75-14.64-9.75s-10.47,3.25-14.64,9.75c-4.19,6.5-6.28,14.09-6.28,22.76s2.09,16.26,6.28,22.76c4.19,6.5,9.06,9.76,14.64,9.76Z"/>
        <path class="cls-2" d="M251.48,189.05v72.19"/>
      </g>
    </g>
  </g>
</svg>